HIERARCHY
ROOT SpineBase
{
  OFFSET 0.000000 0.000000 0.000000
  CHANNELS 6 Xposition Yposition Zposition Zrotation Xrotation Yrotation
  JOINT SpineMid
  {
    OFFSET 0.000000 31.801788 0.000000
    CHANNELS 3 Zrotation Xrotation Yrotation
    JOINT SpineShoulder
    {
      OFFSET 0.024931 23.630068 -0.873617
      CHANNELS 3 Zrotation Xrotation Yrotation
      JOINT Neck
      {
        OFFSET -0.024047 7.800092 -0.643522
        CHANNELS 3 Zrotation Xrotation Yrotation
        JOINT Head
        {
          OFFSET 4.870498 13.527981 -2.834782
          CHANNELS 3 Zrotation Xrotation Yrotation
          End Site
          {
            OFFSET 0 0 0
          }
        }
      }
      JOINT ShoulderLeft
      {
        OFFSET -14.578623 -1.726568 -6.960806
        CHANNELS 3 Zrotation Xrotation Yrotation
        JOINT ElbowLeft
        {
          OFFSET -8.643437 -22.186890 -1.836792
          CHANNELS 3 Zrotation Xrotation Yrotation
          JOINT WristLeft
          {
            OFFSET 3.480663 -24.218335 -7.979791
            CHANNELS 3 Zrotation Xrotation Yrotation
            JOINT HandLeft
            {
              OFFSET 2.558108 -7.584632 -2.152845
              CHANNELS 3 Zrotation Xrotation Yrotation
              JOINT HandTipLeft
              {
                OFFSET 1.556417 -6.612691 -0.793132
                CHANNELS 3 Zrotation Xrotation Yrotation
                End Site
                {
                  OFFSET 0 0 0
                }
              }
              JOINT ThumbLeft
              {
                OFFSET -2.628364 -2.167368 -2.246252
                CHANNELS 3 Zrotation Xrotation Yrotation
                End Site
                {
                  OFFSET 0 0 0
                }
              }
            }
          }
        }
      }
      JOINT ShoulderRight
      {
        OFFSET 16.617146 -4.258948 7.486613
        CHANNELS 3 Zrotation Xrotation Yrotation
        JOINT ElbowRight
        {
          OFFSET 3.873182 -23.417680 5.308113
          CHANNELS 3 Zrotation Xrotation Yrotation
          JOINT WristRight
          {
            OFFSET 3.440201 -11.205096 -25.951565
            CHANNELS 3 Zrotation Xrotation Yrotation
            JOINT HandRight
            {
              OFFSET 1.446302 -0.820090 -3.365710
              CHANNELS 3 Zrotation Xrotation Yrotation
              JOINT HandTipRight
              {
                OFFSET 1.873527 -1.673459 -10.467629
                CHANNELS 3 Zrotation Xrotation Yrotation
                End Site
                {
                  OFFSET 0 0 0
                }
              }
              JOINT ThumbRight
              {
                OFFSET 3.293028 5.316640 -3.023998
                CHANNELS 3 Zrotation Xrotation Yrotation
                End Site
                {
                  OFFSET 0 0 0
                }
              }
            }
          }
        }
      }
    }
  }
  JOINT HipLeft
  {
    OFFSET -7.706440 1.546278 -6.217965
    CHANNELS 3 Zrotation Xrotation Yrotation
    JOINT KneeLeft
    {
      OFFSET -3.963910 -33.204696 3.045113
      CHANNELS 3 Zrotation Xrotation Yrotation
      JOINT AnkleLeft
      {
        OFFSET -5.690322 -34.356180 8.938190
        CHANNELS 3 Zrotation Xrotation Yrotation
        JOINT FootLeft
        {
          OFFSET 2.958959 -2.819515 -10.594161
          CHANNELS 3 Zrotation Xrotation Yrotation
          End Site
          {
            OFFSET 0 0 0
          }
        }
      }
    }
  }
  JOINT HipRight
  {
    OFFSET 6.941896 0.331326 -1.159655
    CHANNELS 3 Zrotation Xrotation Yrotation
    JOINT KneeRight
    {
      OFFSET -5.235560 -33.164273 3.914668
      CHANNELS 3 Zrotation Xrotation Yrotation
      JOINT AnkleRight
      {
        OFFSET -6.190107 -36.318011 11.604056
        CHANNELS 3 Zrotation Xrotation Yrotation
        JOINT FootRight
        {
          OFFSET 0.902769 -6.197627 -3.491361
          CHANNELS 3 Zrotation Xrotation Yrotation
          End Site
          {
            OFFSET 0 0 0
          }
        }
      }
    }
  }
}
MOTION
Frames: 14
Frame Time: 0.033333
37.260982 75.709867 329.276432 -0.000000 0.000000 -19.050631 -0.000000 0.000000 19.050631 -0.000000 0.000000 0.000000 -0.000000 0.000000 0.000000 0.000000 0.000000 0.000000 -0.000000 0.000000 0.000000 -0.000000 0.000000 0.000000 -0.000000 0.000000 0.000000 -0.000000 0.000000 0.000000 0.000000 0.000000 0.000000 0.000000 0.000000 0.000000 -0.000000 0.000000 0.000000 -0.000000 0.000000 0.000000 -0.000000 0.000000 0.000000 -0.000000 0.000000 0.000000 0.000000 0.000000 0.000000 0.000000 0.000000 0.000000 -0.000000 0.000000 19.050631 -0.000000 0.000000 0.000000 -0.000000 0.000000 0.000000 0.000000 0.000000 0.000000 -0.000000 0.000000 19.050631 -0.000000 0.000000 0.000000 -0.000000 0.000000 0.000000 0.000000 0.000000 0.000000
37.310335 75.737330 329.229007 0.036912 -0.024950 -18.706955 -0.042964 0.011793 18.706967 -0.000000 0.000000 0.000000 -0.000000 0.000000 0.000000 0.000000 0.000000 0.000000 -0.000000 0.000000 0.000000 -0.000000 0.000000 0.000000 -1.203901 -4.882692 -1.378915 0.440782 5.983463 1.673365 0.000000 0.000000 0.000000 0.000000 0.000000 0.000000 0.449532 -0.702288 -0.011482 -0.449706 0.702176 0.016993 -0.386646 -0.749680 0.271042 -0.433111 -5.504711 -3.474859 0.000000 0.000000 0.000000 0.000000 0.000000 0.000000 -0.042964 0.011793 18.706967 -0.000000 0.000000 0.000000 -0.000000 0.000000 0.000000 0.000000 0.000000 0.000000 -0.042964 0.011793 18.706967 -0.000000 0.000000 0.000000 -0.476116 0.920995 0.404613 0.000000 0.000000 0.000000
37.358792 75.765314 329.181633 0.078318 -0.049497 -18.448359 -0.089957 0.022170 18.448410 -0.000000 0.000000 0.000000 -0.000000 0.000000 0.000000 0.000000 0.000000 0.000000 -0.000000 0.000000 0.000000 0.272136 -1.019139 -0.234328 -2.463774 -7.850690 -2.326190 0.601171 10.624087 3.048308 0.000000 0.000000 0.000000 0.000000 0.000000 0.000000 0.812453 -1.307943 -0.022815 -0.258906 1.099201 -1.321124 -1.291923 -1.245492 2.024727 -1.590204 -12.140100 -7.683952 0.000000 0.000000 0.000000 0.000000 0.000000 0.000000 -0.089957 0.022170 18.448410 -0.000000 0.000000 0.000000 -0.000000 0.000000 0.000000 0.000000 0.000000 0.000000 -0.089957 0.022170 18.448410 -0.000000 0.000000 0.000000 -0.629091 2.422954 0.712757 0.000000 0.000000 0.000000
37.406352 75.793819 329.134308 0.124217 -0.073633 -18.274395 -0.141041 0.030969 18.274513 -0.000000 0.000000 0.000000 0.849434 -0.225512 0.261454 0.000000 0.000000 0.000000 0.778472 -0.688790 0.209226 -0.439872 -0.830823 -0.531919 -3.278225 -10.389450 -3.197174 0.563142 13.856689 4.096808 0.000000 0.000000 0.000000 0.000000 0.000000 0.000000 1.086795 -1.813899 -0.036291 -0.324199 0.841682 -2.049520 -1.906739 -1.243918 3.315109 -3.552342 -19.062613 -12.401357 0.000000 0.000000 0.000000 0.000000 0.000000 0.000000 -0.141041 0.030969 18.274513 -0.000000 0.000000 0.000000 -0.000000 0.000000 0.000000 0.000000 0.000000 0.000000 -0.141041 0.030969 18.274513 -0.000000 0.000000 0.000000 -0.463356 4.495360 0.914656 0.000000 0.000000 0.000000
37.453015 75.822844 329.087035 0.174607 -0.097350 -18.184851 -0.196267 0.037996 18.185064 -0.000000 0.000000 0.000000 0.992343 -0.254656 0.302642 0.000000 0.000000 0.000000 1.007483 -0.809745 0.240134 -0.645613 -1.203423 -0.637387 -3.753339 -11.997362 -3.815784 0.398586 15.673954 4.787795 0.000000 0.000000 0.000000 0.000000 0.000000 0.000000 1.271370 -2.218041 -0.053758 -0.374200 -0.037409 -2.807305 -2.537655 -0.863940 4.816616 -6.019593 -24.996855 -17.032405 0.000000 0.000000 0.000000 0.000000 0.000000 0.000000 0.219115 0.824396 18.166900 -0.639897 -0.617658 0.011589 -0.000000 0.000000 0.000000 0.000000 0.000000 0.000000 -0.196267 0.037996 18.185064 -0.000000 0.000000 0.000000 0.019294 7.116781 0.991151 0.000000 0.000000 0.000000
37.498781 75.852390 329.039811 0.229480 -0.120640 -18.179754 -0.255665 0.043020 18.180092 -0.000000 0.000000 0.000000 1.064809 -0.261048 0.320467 0.000000 0.000000 0.000000 1.221050 -0.876584 0.250951 -0.879635 -1.620990 -0.707459 -3.864134 -12.697951 -4.162549 0.158017 16.096040 5.096992 0.000000 0.000000 0.000000 0.000000 0.000000 0.000000 1.365765 -2.519158 -0.076567 -0.432735 -1.582236 -3.578759 -3.208305 -0.144362 6.579797 -8.153098 -28.687627 -20.593105 0.000000 0.000000 0.000000 0.000000 0.000000 0.000000 0.087422 1.016901 18.136941 -0.629254 -0.818661 0.035482 -0.000000 0.000000 0.000000 0.000000 0.000000 0.000000 -0.255665 0.043020 18.180092 -0.000000 0.000000 0.000000 0.819487 10.248742 0.914542 0.000000 0.000000 0.000000
37.530578 75.884604 328.998608 0.269128 -0.161514 -18.274668 -0.306201 0.068976 18.275232 -0.000000 0.000000 0.000000 1.110594 -0.213709 0.312713 0.000000 0.000000 0.000000 1.376308 -0.930540 0.261150 -1.259859 -2.122333 -0.722665 -3.232471 -12.396187 -4.308732 -0.122140 14.581779 4.869501 0.000000 0.000000 0.000000 0.000000 0.000000 0.000000 1.563136 -2.835477 -0.075449 -0.681315 -3.642211 -4.438973 -3.741484 2.253017 9.829180 -6.673195 -24.892890 -19.006214 0.000000 0.000000 0.000000 0.000000 0.000000 0.000000 -0.064916 1.296186 18.198460 -0.612574 -1.090436 0.068068 -0.000000 0.000000 0.000000 0.000000 0.000000 0.000000 -0.306201 0.068976 18.275232 -0.000000 0.000000 0.000000 3.369699 17.675056 0.157830 0.000000 0.000000 0.000000
37.566608 75.917676 328.952925 0.326362 -0.177960 -18.430694 -0.365885 0.065648 18.431410 -0.000000 0.000000 0.000000 1.097062 -0.176402 0.296019 0.000000 0.000000 0.000000 1.496434 -0.980323 0.272406 -1.589257 -2.572917 -0.738029 -2.377627 -10.778163 -3.982720 -1.078064 11.469310 4.367963 0.000000 0.000000 0.000000 0.000000 0.000000 0.000000 1.750025 -3.135180 -0.073427 -0.932797 -5.468311 -5.241559 -4.859248 2.049699 12.868820 -3.177197 -17.110120 -16.956230 0.000000 0.000000 0.000000 0.000000 0.000000 0.000000 -0.345887 1.498965 18.312669 -0.469427 -1.354428 0.112920 -0.000000 0.000000 0.000000 0.000000 0.000000 0.000000 -0.033942 0.828797 18.396694 -0.555852 -0.619367 0.029121 5.385685 21.839317 -0.767085 0.000000 0.000000 0.000000
37.606733 75.951658 328.902691 0.390385 -0.180248 -18.688084 -0.427557 0.045656 18.688868 -0.000000 0.000000 0.000000 1.016591 -0.086589 0.245720 0.000000 0.000000 0.000000 1.701844 -0.865705 0.210569 -1.865225 -3.076791 -0.711183 -1.416155 -8.681081 -3.490733 -0.988859 7.222121 3.152737 0.000000 0.000000 0.000000 0.000000 0.000000 0.000000 1.389364 -3.134460 -0.164248 -0.875182 -8.591833 -5.901482 -5.953949 1.567306 15.538028 -1.469617 -13.703785 -15.948570 0.000000 0.000000 0.000000 0.000000 0.000000 0.000000 -0.738162 1.610190 18.523291 -0.202533 -1.582153 0.167269 -0.000000 0.000000 0.000000 0.000000 0.000000 0.000000 -0.006256 0.848404 18.664277 -0.656076 -0.625673 0.017721 6.602427 23.467610 -1.447767 0.000000 0.000000 0.000000
37.643983 75.985578 328.838759 0.462401 -0.170805 -18.995738 -0.492817 0.010989 18.996475 0.805879 -0.207355 0.067295 -0.805640 0.208281 -0.064373 0.000000 0.000000 0.000000 1.134390 -0.377358 0.005602 -2.025745 -3.685832 -0.654262 -0.593148 -6.535707 -2.963434 -1.694400 3.014241 2.189938 0.000000 0.000000 0.000000 0.000000 0.000000 0.000000 -0.080860 -2.799242 -0.378124 -0.662227 -11.815118 -6.157234 -7.117207 -0.994730 17.559722 -1.099219 -13.396445 -17.822302 0.000000 0.000000 0.000000 0.000000 0.000000 0.000000 -1.133757 1.620485 18.791212 0.088455 -1.730130 0.215724 -0.000000 0.000000 0.000000 0.000000 0.000000 0.000000 0.047493 0.831264 18.989635 -1.479989 -1.104631 -0.149546 7.340279 23.541564 -1.452198 0.000000 0.000000 0.000000
37.727032 76.000164 328.772748 0.583551 -0.181764 -19.486187 0.211196 0.012735 19.516408 0.158592 -0.016164 0.047657 -0.945156 0.257559 -0.075076 0.000000 0.000000 0.000000 1.211052 -0.008771 -0.156271 -2.059426 -4.270820 -0.605642 -0.138067 -4.560476 -2.417219 -2.578424 -0.163773 1.463136 0.000000 0.000000 0.000000 0.000000 0.000000 0.000000 -1.251246 -1.500963 -0.437100 -0.786696 -19.951318 -7.035720 -8.933485 -6.249693 17.127178 0.541017 -12.156605 -17.167467 0.000000 0.000000 0.000000 0.000000 0.000000 0.000000 -1.622315 1.563246 19.242571 0.432486 -1.831171 0.264925 -0.000000 0.000000 0.000000 0.000000 0.000000 0.000000 0.021915 0.813460 19.494778 -1.688143 -1.084225 -0.200996 6.556912 20.954258 -1.047811 0.000000 0.000000 0.000000
37.812251 75.996425 328.707246 0.686487 -0.203622 -20.063973 0.228882 -0.010264 20.098870 0.173780 -0.021406 0.053690 -1.071276 0.314715 -0.084494 0.000000 0.000000 0.000000 1.266440 0.416249 -0.335828 -1.988834 -4.842087 -0.549514 0.274670 -3.501025 -2.186859 -3.507637 -2.294532 1.091941 0.000000 0.000000 0.000000 0.000000 0.000000 0.000000 -2.767201 0.005697 -0.516406 -1.148818 -29.890914 -8.025636 -10.492895 -9.152953 16.202033 1.884761 -11.041790 -17.416554 0.000000 0.000000 0.000000 0.000000 0.000000 0.000000 -2.038462 1.455834 19.791750 0.432513 -2.759500 0.357122 0.311107 0.898063 -0.070422 0.000000 0.000000 0.000000 0.009741 0.809390 20.087666 -1.908810 -1.055899 -0.257655 4.394822 16.453980 0.059803 0.000000 0.000000 0.000000
37.979720 75.958148 328.659163 0.881425 -0.263434 -20.814867 0.181129 -0.027419 20.856117 0.165909 -0.039376 0.059381 -2.752892 0.073093 -0.294056 0.000000 0.000000 0.000000 1.278376 0.824806 -0.498704 -1.906997 -5.436054 -0.510054 0.787821 -3.072112 -2.230137 -4.811429 -3.347732 1.164049 0.000000 0.000000 0.000000 0.000000 0.000000 0.000000 -4.422687 1.561342 -0.580179 -2.033303 -40.539108 -9.087076 -12.132123 -9.156610 13.239242 4.202246 -6.870186 -17.591865 0.000000 0.000000 0.000000 0.000000 0.000000 0.000000 -2.616448 1.241577 20.512581 0.792056 -2.873083 0.408689 0.596549 0.915816 -1.165715 0.000000 0.000000 0.000000 -0.215022 0.801423 20.837095 -2.021363 -1.056461 -0.296929 1.976896 9.028434 0.847818 0.000000 0.000000 0.000000
38.197713 75.896542 328.622879 1.122025 -0.355188 -21.654340 0.095222 -0.030697 21.703001 0.140255 -0.057832 0.064394 -3.850474 0.118885 -0.482034 0.000000 0.000000 0.000000 1.279434 1.235997 -0.660596 -1.704317 -6.050153 -0.501025 0.994325 -2.459449 -2.123108 -6.276961 -4.663461 1.105701 0.000000 0.000000 0.000000 0.000000 0.000000 0.000000 -6.053891 3.194079 -0.580527 -3.087091 -49.592338 -9.449386 -13.907579 -9.906950 10.860030 5.292408 -6.468859 -16.844014 0.000000 0.000000 0.000000 0.000000 0.000000 0.000000 -3.173119 0.998607 21.330975 0.976949 -2.893305 0.405614 1.522228 3.336915 -1.524705 0.000000 0.000000 0.000000 -0.577394 0.788938 21.663445 -2.036772 -1.056668 -0.321620 -0.970225 -1.934307 1.127172 0.000000 0.000000 0.000000
